<svg width="74" height="74" viewBox="0 0 74 74" fill="none" xmlns="http://www.w3.org/2000/svg">
<path d="M53.5344 41.625H20.4656C19.293 41.625 18.3829 42.6367 18.5231 43.793C19.5984 52.3637 26.8973 58.9688 36.0172 58.9688H37.977C46.9727 58.9688 54.3958 52.3564 55.4798 43.793C55.6156 42.6367 54.7051 41.625 53.5344 41.625ZM25.3074 32.375C27.8801 32.375 29.9454 30.3154 29.9454 27.75C29.9454 25.1846 28.0102 23.125 25.3074 23.125C22.8793 23.125 20.6824 25.1918 20.6824 27.75C20.6824 30.3082 22.8793 32.375 25.3074 32.375ZM48.5625 23.7031C44.835 23.7031 40.476 26.1428 39.8993 29.7922C39.6543 31.3994 41.5614 32.4111 42.7523 31.3459L44.1349 30.1174C46.2697 28.2212 50.8036 28.2212 52.9557 30.1174L54.3208 31.3459C55.546 32.4119 57.4542 31.4001 57.1912 29.7922C56.6418 26.1457 52.277 23.7031 48.5625 23.7031ZM37 0C16.5633 0 0 16.5633 0 37C0 57.4367 16.5633 74 37 74C57.4367 74 74 57.4367 74 37C74 16.5633 57.4367 0 37 0ZM37 67.0625C20.4223 67.0625 6.9375 53.5763 6.9375 37C6.9375 20.4237 20.4223 6.9375 37 6.9375C53.5777 6.9375 67.0625 20.4237 67.0625 37C67.0625 53.5763 53.5777 67.0625 37 67.0625Z" fill="white"/>
</svg>
